<svg xmlns="http://www.w3.org/2000/svg" xmlns:xlink="http://www.w3.org/1999/xlink" width="500" zoomAndPan="magnify" viewBox="0 0 375 374.999991" height="500" preserveAspectRatio="xMidYMid meet" version="1.0"><defs><g/><clipPath id="39caf0493c"><path d="M 107 83.285156 L 269 83.285156 L 269 144 L 107 144 Z M 107 83.285156 " clip-rule="nonzero"/></clipPath><clipPath id="7204154035"><path d="M 153 138 L 222 138 L 222 241.535156 L 153 241.535156 Z M 153 138 " clip-rule="nonzero"/></clipPath></defs><g clip-path="url(#39caf0493c)"><path fill="#39b54a" d="M 116.085938 143.613281 C 116.722656 141.769531 117.429688 139.957031 118.210938 138.167969 C 118.988281 136.378906 119.835938 134.625 120.75 132.902344 C 121.664062 131.179688 122.644531 129.496094 123.6875 127.847656 C 124.734375 126.199219 125.839844 124.597656 127.011719 123.035156 C 128.179688 121.472656 129.40625 119.960938 130.695312 118.496094 C 131.980469 117.027344 133.320312 115.613281 134.71875 114.25 C 136.113281 112.890625 137.5625 111.582031 139.058594 110.332031 C 140.554688 109.082031 142.097656 107.890625 143.6875 106.757812 C 145.277344 105.628906 146.910156 104.558594 148.582031 103.554688 C 150.253906 102.550781 151.960938 101.613281 153.707031 100.738281 C 155.453125 99.867188 157.226562 99.0625 159.035156 98.324219 C 160.84375 97.589844 162.675781 96.925781 164.535156 96.332031 C 166.390625 95.738281 168.269531 95.214844 170.171875 94.769531 C 172.070312 94.320312 173.984375 93.945312 175.910156 93.644531 C 177.839844 93.34375 179.777344 93.117188 181.722656 92.96875 C 183.667969 92.816406 185.617188 92.742188 187.566406 92.742188 C 189.519531 92.742188 191.46875 92.816406 193.414062 92.96875 C 195.359375 93.117188 197.292969 93.34375 199.222656 93.644531 C 201.152344 93.945312 203.066406 94.320312 204.964844 94.769531 C 206.863281 95.214844 208.742188 95.738281 210.601562 96.332031 C 212.457031 96.925781 214.292969 97.589844 216.097656 98.324219 C 217.90625 99.0625 219.683594 99.867188 221.425781 100.738281 C 223.171875 101.613281 224.882812 102.550781 226.554688 103.554688 C 228.226562 104.558594 229.855469 105.628906 231.445312 106.757812 C 233.035156 107.890625 234.578125 109.082031 236.074219 110.332031 C 237.574219 111.582031 239.019531 112.890625 240.414062 114.25 C 241.8125 115.613281 243.152344 117.027344 244.441406 118.496094 C 245.726562 119.960938 246.953125 121.472656 248.125 123.035156 C 249.292969 124.597656 250.398438 126.199219 251.445312 127.847656 C 252.488281 129.496094 253.46875 131.179688 254.382812 132.902344 C 255.300781 134.625 256.144531 136.378906 256.925781 138.167969 C 257.703125 139.957031 258.410156 141.769531 259.050781 143.613281 L 268.003906 141.097656 C 267.296875 139.015625 266.507812 136.960938 265.640625 134.941406 C 264.773438 132.917969 263.828125 130.929688 262.808594 128.980469 C 261.785156 127.03125 260.691406 125.125 259.519531 123.261719 C 258.351562 121.398438 257.109375 119.582031 255.796875 117.8125 C 254.488281 116.046875 253.109375 114.332031 251.664062 112.671875 C 250.21875 111.011719 248.710938 109.410156 247.144531 107.867188 C 245.574219 106.320312 243.945312 104.84375 242.261719 103.425781 C 240.578125 102.007812 238.839844 100.660156 237.050781 99.375 C 235.261719 98.09375 233.421875 96.882812 231.539062 95.746094 C 229.65625 94.605469 227.730469 93.542969 225.761719 92.550781 C 223.796875 91.5625 221.792969 90.652344 219.757812 89.816406 C 217.71875 88.984375 215.652344 88.230469 213.554688 87.554688 C 211.457031 86.882812 209.339844 86.292969 207.195312 85.785156 C 205.054688 85.273438 202.894531 84.851562 200.71875 84.507812 C 198.542969 84.167969 196.359375 83.914062 194.164062 83.742188 C 191.96875 83.570312 189.769531 83.484375 187.566406 83.484375 C 185.363281 83.484375 183.167969 83.570312 180.972656 83.742188 C 178.777344 83.914062 176.589844 84.167969 174.414062 84.507812 C 172.238281 84.851562 170.082031 85.273438 167.9375 85.785156 C 165.796875 86.292969 163.675781 86.882812 161.578125 87.554688 C 159.484375 88.230469 157.414062 88.984375 155.378906 89.816406 C 153.339844 90.652344 151.339844 91.5625 149.371094 92.550781 C 147.40625 93.542969 145.480469 94.605469 143.59375 95.746094 C 141.710938 96.882812 139.875 98.09375 138.085938 99.375 C 136.292969 100.660156 134.558594 102.007812 132.871094 103.425781 C 131.1875 104.84375 129.5625 106.320312 127.992188 107.867188 C 126.421875 109.410156 124.914062 111.011719 123.46875 112.671875 C 122.023438 114.332031 120.648438 116.046875 119.335938 117.8125 C 118.023438 119.582031 116.785156 121.398438 115.613281 123.261719 C 114.441406 125.125 113.347656 127.03125 112.324219 128.980469 C 111.304688 130.929688 110.359375 132.917969 109.492188 134.941406 C 108.625 136.960938 107.839844 139.015625 107.132812 141.097656 Z M 116.085938 143.613281 " fill-opacity="1" fill-rule="nonzero"/></g><g clip-path="url(#7204154035)"><path fill="#39b54a" d="M 180.175781 195.65625 L 156.964844 201.539062 L 190.125 138.808594 L 220.085938 138.808594 L 179.359375 189.574219 L 221.277344 179.105469 L 153.03125 241.308594 Z M 180.175781 195.65625 " fill-opacity="1" fill-rule="nonzero"/></g><path fill="#34353a" d="M 292.558594 150.207031 L 292.074219 147.585938 C 291.960938 146.984375 291.742188 146.417969 291.425781 145.890625 C 291.109375 145.363281 290.710938 144.910156 290.230469 144.527344 C 289.746094 144.144531 289.214844 143.859375 288.628906 143.667969 C 288.046875 143.476562 287.445312 143.394531 286.832031 143.417969 C 281.523438 143.632812 275.886719 144.035156 272.859375 144.5 C 266.433594 145.480469 258.027344 154.53125 258.027344 154.53125 C 258.027344 154.53125 247.027344 139.191406 241.667969 131.675781 C 236.304688 124.160156 230.191406 117.773438 220.234375 117.773438 L 154.914062 117.773438 C 144.957031 117.773438 138.863281 124.253906 133.496094 131.734375 C 128.125 139.21875 117.132812 154.589844 117.132812 154.589844 C 117.132812 154.589844 108.683594 145.480469 102.289062 144.5 C 99.261719 144.035156 93.625 143.632812 88.316406 143.417969 C 87.699219 143.394531 87.101562 143.476562 86.515625 143.667969 C 85.933594 143.859375 85.398438 144.144531 84.917969 144.527344 C 84.4375 144.910156 84.039062 145.363281 83.722656 145.890625 C 83.402344 146.417969 83.1875 146.984375 83.074219 147.585938 L 82.589844 150.207031 C 81.808594 154.417969 84.328125 156.015625 88.644531 157.199219 C 92.242188 158.1875 97.792969 159.597656 99.839844 159.390625 C 103.140625 159.046875 108.039062 156.84375 108.867188 156.566406 L 108.933594 156.640625 C 109.1875 156.914062 109.402344 157.210938 109.585938 157.535156 C 109.765625 157.859375 109.90625 158.199219 110.003906 158.558594 C 110.101562 158.914062 110.15625 159.277344 110.167969 159.648438 C 110.179688 160.019531 110.144531 160.386719 110.066406 160.75 C 109.988281 161.113281 109.871094 161.460938 109.707031 161.792969 C 109.546875 162.128906 109.347656 162.4375 109.113281 162.722656 C 108.875 163.011719 108.609375 163.265625 108.3125 163.484375 C 108.015625 163.707031 107.695312 163.890625 107.351562 164.035156 C 104.128906 165.449219 99.8125 167.542969 98.734375 169.050781 C 96.496094 171.289062 93.695312 203.90625 92.808594 214.910156 C 92.722656 216.027344 92.910156 217.09375 93.375 218.113281 C 93.84375 219.132812 94.527344 219.972656 95.433594 220.636719 L 101.441406 225.035156 L 101.441406 230.378906 C 101.4375 230.613281 101.484375 230.839844 101.574219 231.058594 C 101.664062 231.277344 101.789062 231.472656 101.957031 231.640625 C 102.125 231.808594 102.316406 231.9375 102.535156 232.027344 C 102.753906 232.117188 102.980469 232.164062 103.214844 232.164062 L 134.367188 232.433594 C 134.609375 232.4375 134.835938 232.390625 135.058594 232.300781 C 135.28125 232.210938 135.476562 232.082031 135.644531 231.917969 C 135.816406 231.75 135.945312 231.554688 136.039062 231.335938 C 136.132812 231.113281 136.179688 230.886719 136.179688 230.648438 L 136.179688 227.996094 L 142.804688 225.679688 C 146.304688 224.457031 149.910156 223.917969 153.617188 224.050781 L 158.035156 224.214844 L 170.863281 202.636719 L 148.375 208.316406 L 172.335938 162.988281 L 125.917969 154.25 C 125.796875 154.210938 125.683594 154.164062 125.574219 154.097656 C 125.464844 154.035156 125.363281 153.960938 125.273438 153.871094 C 125.183594 153.785156 125.101562 153.6875 125.035156 153.582031 C 124.96875 153.472656 124.914062 153.359375 124.875 153.242188 C 124.835938 153.121094 124.808594 152.996094 124.800781 152.871094 C 124.789062 152.746094 124.792969 152.621094 124.8125 152.496094 C 124.835938 152.371094 124.867188 152.25 124.917969 152.132812 C 124.96875 152.019531 125.03125 151.910156 125.105469 151.808594 C 128.09375 147.773438 135.621094 137.691406 142.496094 129.382812 C 143.242188 128.476562 144.144531 127.773438 145.203125 127.273438 C 146.261719 126.769531 147.378906 126.515625 148.550781 126.511719 L 226.585938 126.511719 C 227.761719 126.511719 228.886719 126.765625 229.953125 127.273438 C 231.019531 127.777344 231.925781 128.484375 232.671875 129.394531 C 239.546875 137.730469 247.074219 147.789062 250.0625 151.820312 C 250.136719 151.921875 250.199219 152.03125 250.25 152.148438 C 250.296875 152.265625 250.332031 152.382812 250.351562 152.507812 C 250.375 152.632812 250.378906 152.757812 250.367188 152.886719 C 250.359375 153.011719 250.332031 153.132812 250.292969 153.253906 C 250.253906 153.375 250.199219 153.488281 250.132812 153.59375 C 250.066406 153.699219 249.984375 153.796875 249.894531 153.886719 C 249.804688 153.972656 249.703125 154.050781 249.59375 154.113281 C 249.484375 154.175781 249.367188 154.226562 249.246094 154.261719 L 207.015625 162.214844 L 191.085938 182.070312 L 236.5 171.449219 L 177.773438 224.914062 L 187.574219 225.277344 L 221.539062 224.023438 C 225.246094 223.890625 228.847656 224.429688 232.347656 225.652344 L 238.976562 227.972656 L 238.976562 230.621094 C 238.976562 230.859375 239.023438 231.085938 239.117188 231.308594 C 239.207031 231.527344 239.339844 231.722656 239.507812 231.890625 C 239.679688 232.058594 239.875 232.1875 240.09375 232.277344 C 240.316406 232.367188 240.546875 232.410156 240.785156 232.40625 L 271.9375 232.140625 C 272.175781 232.136719 272.402344 232.09375 272.621094 232 C 272.839844 231.910156 273.03125 231.78125 273.195312 231.613281 C 273.363281 231.445312 273.492188 231.25 273.582031 231.03125 C 273.671875 230.8125 273.714844 230.585938 273.714844 230.351562 L 273.714844 225.007812 L 279.722656 220.609375 C 280.625 219.945312 281.3125 219.105469 281.777344 218.085938 C 282.246094 217.066406 282.433594 216 282.34375 214.882812 C 281.457031 203.878906 278.660156 171.261719 276.417969 169.023438 C 275.34375 167.519531 271.035156 165.421875 267.808594 164.007812 C 267.464844 163.863281 267.148438 163.679688 266.851562 163.457031 C 266.554688 163.238281 266.285156 162.984375 266.050781 162.695312 C 265.8125 162.410156 265.613281 162.101562 265.453125 161.765625 C 265.292969 161.433594 265.171875 161.085938 265.09375 160.722656 C 265.015625 160.359375 264.984375 159.996094 264.992188 159.625 C 265.003906 159.253906 265.058594 158.890625 265.15625 158.53125 C 265.253906 158.175781 265.394531 157.832031 265.574219 157.507812 C 265.753906 157.183594 265.96875 156.886719 266.21875 156.613281 C 266.246094 156.59375 266.265625 156.570312 266.289062 156.546875 C 267.113281 156.824219 272.011719 159.027344 275.316406 159.371094 C 277.332031 159.578125 282.910156 158.167969 286.507812 157.179688 C 290.820312 156.015625 293.335938 154.417969 292.558594 150.207031 Z M 141.246094 181.800781 C 141.511719 181.875 141.664062 182.046875 141.699219 182.320312 C 141.738281 182.597656 141.632812 182.800781 141.390625 182.9375 L 129.695312 189.613281 C 129.011719 190.003906 128.277344 190.183594 127.492188 190.144531 L 114.066406 189.535156 C 113.695312 189.515625 113.328125 189.464844 112.96875 189.378906 C 112.605469 189.292969 112.257812 189.175781 111.917969 189.027344 C 111.574219 188.878906 111.253906 188.699219 110.945312 188.492188 C 110.640625 188.28125 110.355469 188.046875 110.089844 187.785156 C 109.828125 187.523438 109.589844 187.242188 109.378906 186.9375 C 109.164062 186.632812 108.984375 186.308594 108.832031 185.972656 C 108.679688 185.632812 108.558594 185.28125 108.472656 184.921875 C 108.382812 184.5625 108.328125 184.195312 108.308594 183.824219 L 107.761719 173.742188 C 107.757812 173.644531 107.773438 173.550781 107.816406 173.460938 C 107.855469 173.371094 107.914062 173.292969 107.988281 173.230469 C 108.066406 173.167969 108.152344 173.125 108.25 173.105469 C 108.34375 173.085938 108.441406 173.085938 108.535156 173.109375 Z M 266.582031 173.0625 C 266.679688 173.039062 266.777344 173.035156 266.875 173.054688 C 266.972656 173.074219 267.058594 173.117188 267.136719 173.179688 C 267.214844 173.242188 267.273438 173.320312 267.3125 173.410156 C 267.351562 173.5 267.371094 173.597656 267.363281 173.695312 L 266.820312 183.777344 C 266.796875 184.148438 266.742188 184.515625 266.65625 184.875 C 266.566406 185.234375 266.449219 185.585938 266.296875 185.925781 C 266.144531 186.261719 265.960938 186.585938 265.75 186.890625 C 265.539062 187.195312 265.300781 187.476562 265.039062 187.738281 C 264.773438 188 264.488281 188.234375 264.179688 188.445312 C 263.875 188.652344 263.550781 188.832031 263.210938 188.980469 C 262.871094 189.128906 262.519531 189.246094 262.160156 189.332031 C 261.796875 189.417969 261.429688 189.46875 261.0625 189.484375 L 247.652344 190.113281 C 246.867188 190.148438 246.136719 189.972656 245.453125 189.582031 L 233.753906 182.980469 C 233.515625 182.84375 233.410156 182.636719 233.445312 182.359375 C 233.484375 182.085938 233.636719 181.914062 233.902344 181.84375 Z M 266.582031 173.0625 " fill-opacity="1" fill-rule="nonzero"/><g fill="#34353a" fill-opacity="1"><g transform="translate(106.587784, 281.253672)"><g><path d="M 11.609375 -16.625 C 10.265625 -16.625 9.210938 -16.070312 8.453125 -14.96875 C 7.691406 -13.863281 7.3125 -12.34375 7.3125 -10.40625 C 7.3125 -6.363281 8.847656 -4.34375 11.921875 -4.34375 C 12.847656 -4.34375 13.742188 -4.472656 14.609375 -4.734375 C 15.484375 -4.992188 16.363281 -5.304688 17.25 -5.671875 L 17.25 -0.875 C 15.5 -0.101562 13.519531 0.28125 11.3125 0.28125 C 8.144531 0.28125 5.71875 -0.632812 4.03125 -2.46875 C 2.34375 -4.300781 1.5 -6.957031 1.5 -10.4375 C 1.5 -12.601562 1.90625 -14.507812 2.71875 -16.15625 C 3.539062 -17.800781 4.71875 -19.066406 6.25 -19.953125 C 7.78125 -20.835938 9.585938 -21.28125 11.671875 -21.28125 C 13.929688 -21.28125 16.097656 -20.785156 18.171875 -19.796875 L 16.4375 -15.34375 C 15.65625 -15.707031 14.875 -16.007812 14.09375 -16.25 C 13.320312 -16.5 12.492188 -16.625 11.609375 -16.625 Z M 11.609375 -16.625 "/></g></g></g><g fill="#34353a" fill-opacity="1"><g transform="translate(125.663883, 281.253672)"><g><path d="M 17.46875 -8.171875 C 17.46875 -5.503906 16.75 -3.425781 15.3125 -1.9375 C 13.882812 -0.457031 11.882812 0.28125 9.3125 0.28125 C 6.84375 0.28125 4.878906 -0.476562 3.421875 -2 C 1.960938 -3.519531 1.234375 -5.578125 1.234375 -8.171875 C 1.234375 -10.816406 1.945312 -12.875 3.375 -14.34375 C 4.8125 -15.8125 6.820312 -16.546875 9.40625 -16.546875 C 11 -16.546875 12.40625 -16.207031 13.625 -15.53125 C 14.851562 -14.851562 15.800781 -13.878906 16.46875 -12.609375 C 17.132812 -11.335938 17.46875 -9.859375 17.46875 -8.171875 Z M 6.9375 -8.171875 C 6.9375 -6.773438 7.117188 -5.707031 7.484375 -4.96875 C 7.859375 -4.238281 8.488281 -3.875 9.375 -3.875 C 10.238281 -3.875 10.847656 -4.238281 11.203125 -4.96875 C 11.566406 -5.707031 11.75 -6.773438 11.75 -8.171875 C 11.75 -9.554688 11.566406 -10.601562 11.203125 -11.3125 C 10.835938 -12.019531 10.21875 -12.375 9.34375 -12.375 C 8.476562 -12.375 7.859375 -12.019531 7.484375 -11.3125 C 7.117188 -10.613281 6.9375 -9.566406 6.9375 -8.171875 Z M 6.9375 -8.171875 "/></g></g></g><g fill="#34353a" fill-opacity="1"><g transform="translate(144.395493, 281.253672)"><g><path d="M 12.203125 0 L 12.203125 -8.875 C 12.203125 -9.945312 12.046875 -10.757812 11.734375 -11.3125 C 11.421875 -11.863281 10.921875 -12.140625 10.234375 -12.140625 C 9.285156 -12.140625 8.597656 -11.757812 8.171875 -11 C 7.753906 -10.25 7.546875 -8.957031 7.546875 -7.125 L 7.546875 0 L 1.9375 0 L 1.9375 -16.265625 L 6.171875 -16.265625 L 6.875 -14.25 L 7.203125 -14.25 C 7.679688 -15.019531 8.34375 -15.59375 9.1875 -15.96875 C 10.039062 -16.351562 11.015625 -16.546875 12.109375 -16.546875 C 13.910156 -16.546875 15.3125 -16.023438 16.3125 -14.984375 C 17.3125 -13.941406 17.8125 -12.472656 17.8125 -10.578125 L 17.8125 0 Z M 12.203125 0 "/></g></g></g><g fill="#34353a" fill-opacity="1"><g transform="translate(164.088796, 281.253672)"><g><path d="M 12.203125 0 L 12.203125 -8.875 C 12.203125 -9.945312 12.046875 -10.757812 11.734375 -11.3125 C 11.421875 -11.863281 10.921875 -12.140625 10.234375 -12.140625 C 9.285156 -12.140625 8.597656 -11.757812 8.171875 -11 C 7.753906 -10.25 7.546875 -8.957031 7.546875 -7.125 L 7.546875 0 L 1.9375 0 L 1.9375 -16.265625 L 6.171875 -16.265625 L 6.875 -14.25 L 7.203125 -14.25 C 7.679688 -15.019531 8.34375 -15.59375 9.1875 -15.96875 C 10.039062 -16.351562 11.015625 -16.546875 12.109375 -16.546875 C 13.910156 -16.546875 15.3125 -16.023438 16.3125 -14.984375 C 17.3125 -13.941406 17.8125 -12.472656 17.8125 -10.578125 L 17.8125 0 Z M 12.203125 0 "/></g></g></g><g fill="#34353a" fill-opacity="1"><g transform="translate(183.782099, 281.253672)"><g><path d="M 9.78125 0.28125 C 7.070312 0.28125 4.96875 -0.4375 3.46875 -1.875 C 1.976562 -3.3125 1.234375 -5.359375 1.234375 -8.015625 C 1.234375 -10.765625 1.925781 -12.875 3.3125 -14.34375 C 4.695312 -15.8125 6.675781 -16.546875 9.25 -16.546875 C 11.707031 -16.546875 13.601562 -15.90625 14.9375 -14.625 C 16.269531 -13.351562 16.9375 -11.515625 16.9375 -9.109375 L 16.9375 -6.609375 L 6.90625 -6.609375 C 6.9375 -5.703125 7.265625 -4.988281 7.890625 -4.46875 C 8.523438 -3.957031 9.382812 -3.703125 10.46875 -3.703125 C 11.445312 -3.703125 12.347656 -3.796875 13.171875 -3.984375 C 14.003906 -4.171875 14.90625 -4.488281 15.875 -4.9375 L 15.875 -0.90625 C 14.988281 -0.457031 14.078125 -0.148438 13.140625 0.015625 C 12.203125 0.191406 11.082031 0.28125 9.78125 0.28125 Z M 9.453125 -12.734375 C 8.796875 -12.734375 8.242188 -12.523438 7.796875 -12.109375 C 7.347656 -11.691406 7.085938 -11.035156 7.015625 -10.140625 L 11.84375 -10.140625 C 11.820312 -10.929688 11.597656 -11.5625 11.171875 -12.03125 C 10.742188 -12.5 10.171875 -12.734375 9.453125 -12.734375 Z M 9.453125 -12.734375 "/></g></g></g><g fill="#34353a" fill-opacity="1"><g transform="translate(201.953907, 281.253672)"><g><path d="M 9.34375 0.28125 C 6.6875 0.28125 4.671875 -0.429688 3.296875 -1.859375 C 1.921875 -3.296875 1.234375 -5.359375 1.234375 -8.046875 C 1.234375 -10.742188 1.972656 -12.832031 3.453125 -14.3125 C 4.941406 -15.800781 7.050781 -16.546875 9.78125 -16.546875 C 11.664062 -16.546875 13.441406 -16.132812 15.109375 -15.3125 L 13.46875 -11.171875 C 12.78125 -11.460938 12.148438 -11.695312 11.578125 -11.875 C 11.003906 -12.050781 10.40625 -12.140625 9.78125 -12.140625 C 8.875 -12.140625 8.171875 -11.785156 7.671875 -11.078125 C 7.179688 -10.367188 6.9375 -9.367188 6.9375 -8.078125 C 6.9375 -5.472656 7.894531 -4.171875 9.8125 -4.171875 C 11.457031 -4.171875 13.035156 -4.648438 14.546875 -5.609375 L 14.546875 -1.140625 C 13.109375 -0.191406 11.375 0.28125 9.34375 0.28125 Z M 9.34375 0.28125 "/></g></g></g><g fill="#34353a" fill-opacity="1"><g transform="translate(217.800413, 281.253672)"><g><path d="M 9.90625 -4.140625 C 10.65625 -4.140625 11.554688 -4.328125 12.609375 -4.703125 L 12.609375 -0.609375 C 11.859375 -0.285156 11.140625 -0.0546875 10.453125 0.078125 C 9.765625 0.210938 8.960938 0.28125 8.046875 0.28125 C 6.160156 0.28125 4.800781 -0.175781 3.96875 -1.09375 C 3.144531 -2.019531 2.734375 -3.441406 2.734375 -5.359375 L 2.734375 -12.0625 L 0.765625 -12.0625 L 0.765625 -14.34375 L 3.25 -16.109375 L 4.703125 -19.515625 L 8.375 -19.515625 L 8.375 -16.265625 L 12.375 -16.265625 L 12.375 -12.0625 L 8.375 -12.0625 L 8.375 -5.71875 C 8.375 -4.664062 8.882812 -4.140625 9.90625 -4.140625 Z M 9.90625 -4.140625 "/></g></g></g><g fill="#34353a" fill-opacity="1"><g transform="translate(231.321616, 281.253672)"><g><path d="M 9.78125 0.28125 C 7.070312 0.28125 4.96875 -0.4375 3.46875 -1.875 C 1.976562 -3.3125 1.234375 -5.359375 1.234375 -8.015625 C 1.234375 -10.765625 1.925781 -12.875 3.3125 -14.34375 C 4.695312 -15.8125 6.675781 -16.546875 9.25 -16.546875 C 11.707031 -16.546875 13.601562 -15.90625 14.9375 -14.625 C 16.269531 -13.351562 16.9375 -11.515625 16.9375 -9.109375 L 16.9375 -6.609375 L 6.90625 -6.609375 C 6.9375 -5.703125 7.265625 -4.988281 7.890625 -4.46875 C 8.523438 -3.957031 9.382812 -3.703125 10.46875 -3.703125 C 11.445312 -3.703125 12.347656 -3.796875 13.171875 -3.984375 C 14.003906 -4.171875 14.90625 -4.488281 15.875 -4.9375 L 15.875 -0.90625 C 14.988281 -0.457031 14.078125 -0.148438 13.140625 0.015625 C 12.203125 0.191406 11.082031 0.28125 9.78125 0.28125 Z M 9.453125 -12.734375 C 8.796875 -12.734375 8.242188 -12.523438 7.796875 -12.109375 C 7.347656 -11.691406 7.085938 -11.035156 7.015625 -10.140625 L 11.84375 -10.140625 C 11.820312 -10.929688 11.597656 -11.5625 11.171875 -12.03125 C 10.742188 -12.5 10.171875 -12.734375 9.453125 -12.734375 Z M 9.453125 -12.734375 "/></g></g></g><g fill="#34353a" fill-opacity="1"><g transform="translate(249.493425, 281.253672)"><g><path d="M 6.984375 0.28125 C 5.828125 0.28125 4.816406 -0.046875 3.953125 -0.703125 C 3.085938 -1.359375 2.414062 -2.328125 1.9375 -3.609375 C 1.46875 -4.898438 1.234375 -6.398438 1.234375 -8.109375 C 1.234375 -10.742188 1.765625 -12.804688 2.828125 -14.296875 C 3.890625 -15.796875 5.347656 -16.546875 7.203125 -16.546875 C 8.109375 -16.546875 8.90625 -16.363281 9.59375 -16 C 10.28125 -15.632812 10.90625 -15.023438 11.46875 -14.171875 L 11.578125 -14.171875 C 11.398438 -15.441406 11.3125 -16.710938 11.3125 -17.984375 L 11.3125 -22.328125 L 16.96875 -22.328125 L 16.96875 0 L 12.734375 0 L 11.53125 -2.046875 L 11.3125 -2.046875 C 10.34375 -0.492188 8.898438 0.28125 6.984375 0.28125 Z M 9.28125 -4.140625 C 10.1875 -4.140625 10.820312 -4.421875 11.1875 -4.984375 C 11.550781 -5.554688 11.75 -6.429688 11.78125 -7.609375 L 11.78125 -8.046875 C 11.78125 -9.484375 11.570312 -10.503906 11.15625 -11.109375 C 10.75 -11.722656 10.109375 -12.03125 9.234375 -12.03125 C 8.492188 -12.03125 7.921875 -11.679688 7.515625 -10.984375 C 7.109375 -10.285156 6.90625 -9.296875 6.90625 -8.015625 C 6.90625 -6.753906 7.109375 -5.789062 7.515625 -5.125 C 7.929688 -4.46875 8.519531 -4.140625 9.28125 -4.140625 Z M 9.28125 -4.140625 "/></g></g></g><g fill="#34353a" fill-opacity="1"><g transform="translate(123.980319, 321.827067)"><g><path d="M 14.046875 -20.984375 L 20.390625 -20.984375 L 13.515625 0 L 6.84375 0 L 0 -20.984375 L 6.375 -20.984375 L 9.234375 -10.34375 C 9.828125 -7.976562 10.148438 -6.332031 10.203125 -5.40625 C 10.265625 -6.082031 10.394531 -6.921875 10.59375 -7.921875 C 10.800781 -8.921875 10.984375 -9.710938 11.140625 -10.296875 Z M 14.046875 -20.984375 "/></g></g></g><g fill="#34353a" fill-opacity="1"><g transform="translate(144.376961, 321.827067)"><g><path d="M 9.78125 0.28125 C 7.070312 0.28125 4.96875 -0.4375 3.46875 -1.875 C 1.976562 -3.3125 1.234375 -5.359375 1.234375 -8.015625 C 1.234375 -10.765625 1.925781 -12.875 3.3125 -14.34375 C 4.695312 -15.8125 6.675781 -16.546875 9.25 -16.546875 C 11.707031 -16.546875 13.601562 -15.90625 14.9375 -14.625 C 16.269531 -13.351562 16.9375 -11.515625 16.9375 -9.109375 L 16.9375 -6.609375 L 6.90625 -6.609375 C 6.9375 -5.703125 7.265625 -4.988281 7.890625 -4.46875 C 8.523438 -3.957031 9.382812 -3.703125 10.46875 -3.703125 C 11.445312 -3.703125 12.347656 -3.796875 13.171875 -3.984375 C 14.003906 -4.171875 14.90625 -4.488281 15.875 -4.9375 L 15.875 -0.90625 C 14.988281 -0.457031 14.078125 -0.148438 13.140625 0.015625 C 12.203125 0.191406 11.082031 0.28125 9.78125 0.28125 Z M 9.453125 -12.734375 C 8.796875 -12.734375 8.242188 -12.523438 7.796875 -12.109375 C 7.347656 -11.691406 7.085938 -11.035156 7.015625 -10.140625 L 11.84375 -10.140625 C 11.820312 -10.929688 11.597656 -11.5625 11.171875 -12.03125 C 10.742188 -12.5 10.171875 -12.734375 9.453125 -12.734375 Z M 9.453125 -12.734375 "/></g></g></g><g fill="#34353a" fill-opacity="1"><g transform="translate(162.548769, 321.827067)"><g><path d="M 12.171875 0 L 12.171875 -8.875 C 12.171875 -11.050781 11.523438 -12.140625 10.234375 -12.140625 C 9.316406 -12.140625 8.640625 -11.753906 8.203125 -10.984375 C 7.765625 -10.210938 7.546875 -8.929688 7.546875 -7.140625 L 7.546875 0 L 1.9375 0 L 1.9375 -22.328125 L 7.546875 -22.328125 L 7.546875 -19.15625 C 7.546875 -17.71875 7.46875 -16.082031 7.3125 -14.25 L 7.578125 -14.25 C 8.109375 -15.09375 8.742188 -15.6875 9.484375 -16.03125 C 10.222656 -16.375 11.082031 -16.546875 12.0625 -16.546875 C 13.875 -16.546875 15.285156 -16.019531 16.296875 -14.96875 C 17.304688 -13.925781 17.8125 -12.460938 17.8125 -10.578125 L 17.8125 0 Z M 12.171875 0 "/></g></g></g><g fill="#34353a" fill-opacity="1"><g transform="translate(182.242072, 321.827067)"><g><path d="M 7.578125 0 L 1.96875 0 L 1.96875 -16.265625 L 7.578125 -16.265625 Z M 1.828125 -20.3125 C 1.828125 -21.144531 2.0625 -21.765625 2.53125 -22.171875 C 3 -22.585938 3.753906 -22.796875 4.796875 -22.796875 C 5.835938 -22.796875 6.597656 -22.585938 7.078125 -22.171875 C 7.554688 -21.753906 7.796875 -21.132812 7.796875 -20.3125 C 7.796875 -18.664062 6.796875 -17.84375 4.796875 -17.84375 C 2.816406 -17.84375 1.828125 -18.664062 1.828125 -20.3125 Z M 1.828125 -20.3125 "/></g></g></g><g fill="#34353a" fill-opacity="1"><g transform="translate(191.801649, 321.827067)"><g><path d="M 9.34375 0.28125 C 6.6875 0.28125 4.671875 -0.429688 3.296875 -1.859375 C 1.921875 -3.296875 1.234375 -5.359375 1.234375 -8.046875 C 1.234375 -10.742188 1.972656 -12.832031 3.453125 -14.3125 C 4.941406 -15.800781 7.050781 -16.546875 9.78125 -16.546875 C 11.664062 -16.546875 13.441406 -16.132812 15.109375 -15.3125 L 13.46875 -11.171875 C 12.78125 -11.460938 12.148438 -11.695312 11.578125 -11.875 C 11.003906 -12.050781 10.40625 -12.140625 9.78125 -12.140625 C 8.875 -12.140625 8.171875 -11.785156 7.671875 -11.078125 C 7.179688 -10.367188 6.9375 -9.367188 6.9375 -8.078125 C 6.9375 -5.472656 7.894531 -4.171875 9.8125 -4.171875 C 11.457031 -4.171875 13.035156 -4.648438 14.546875 -5.609375 L 14.546875 -1.140625 C 13.109375 -0.191406 11.375 0.28125 9.34375 0.28125 Z M 9.34375 0.28125 "/></g></g></g><g fill="#34353a" fill-opacity="1"><g transform="translate(207.648155, 321.827067)"><g><path d="M 7.546875 0 L 1.9375 0 L 1.9375 -22.328125 L 7.546875 -22.328125 Z M 7.546875 0 "/></g></g></g><g fill="#34353a" fill-opacity="1"><g transform="translate(217.150317, 321.827067)"><g><path d="M 9.78125 0.28125 C 7.070312 0.28125 4.96875 -0.4375 3.46875 -1.875 C 1.976562 -3.3125 1.234375 -5.359375 1.234375 -8.015625 C 1.234375 -10.765625 1.925781 -12.875 3.3125 -14.34375 C 4.695312 -15.8125 6.675781 -16.546875 9.25 -16.546875 C 11.707031 -16.546875 13.601562 -15.90625 14.9375 -14.625 C 16.269531 -13.351562 16.9375 -11.515625 16.9375 -9.109375 L 16.9375 -6.609375 L 6.90625 -6.609375 C 6.9375 -5.703125 7.265625 -4.988281 7.890625 -4.46875 C 8.523438 -3.957031 9.382812 -3.703125 10.46875 -3.703125 C 11.445312 -3.703125 12.347656 -3.796875 13.171875 -3.984375 C 14.003906 -4.171875 14.90625 -4.488281 15.875 -4.9375 L 15.875 -0.90625 C 14.988281 -0.457031 14.078125 -0.148438 13.140625 0.015625 C 12.203125 0.191406 11.082031 0.28125 9.78125 0.28125 Z M 9.453125 -12.734375 C 8.796875 -12.734375 8.242188 -12.523438 7.796875 -12.109375 C 7.347656 -11.691406 7.085938 -11.035156 7.015625 -10.140625 L 11.84375 -10.140625 C 11.820312 -10.929688 11.597656 -11.5625 11.171875 -12.03125 C 10.742188 -12.5 10.171875 -12.734375 9.453125 -12.734375 Z M 9.453125 -12.734375 "/></g></g></g><g fill="#34353a" fill-opacity="1"><g transform="translate(235.322125, 321.827067)"><g><path d="M 14.5 -5 C 14.5 -3.25 13.90625 -1.929688 12.71875 -1.046875 C 11.53125 -0.160156 9.828125 0.28125 7.609375 0.28125 C 6.398438 0.28125 5.347656 0.21875 4.453125 0.09375 C 3.566406 -0.03125 2.660156 -0.265625 1.734375 -0.609375 L 1.734375 -5.109375 C 2.609375 -4.722656 3.5625 -4.40625 4.59375 -4.15625 C 5.632812 -3.90625 6.5625 -3.78125 7.375 -3.78125 C 8.59375 -3.78125 9.203125 -4.0625 9.203125 -4.625 C 9.203125 -4.90625 9.03125 -5.15625 8.6875 -5.375 C 8.351562 -5.601562 7.363281 -6.046875 5.71875 -6.703125 C 4.226562 -7.316406 3.1875 -8.007812 2.59375 -8.78125 C 2 -9.5625 1.703125 -10.550781 1.703125 -11.75 C 1.703125 -13.257812 2.285156 -14.4375 3.453125 -15.28125 C 4.617188 -16.125 6.269531 -16.546875 8.40625 -16.546875 C 9.476562 -16.546875 10.484375 -16.425781 11.421875 -16.1875 C 12.367188 -15.957031 13.347656 -15.617188 14.359375 -15.171875 L 12.84375 -11.546875 C 12.09375 -11.890625 11.300781 -12.175781 10.46875 -12.40625 C 9.644531 -12.644531 8.96875 -12.765625 8.4375 -12.765625 C 7.519531 -12.765625 7.0625 -12.535156 7.0625 -12.078125 C 7.0625 -11.804688 7.21875 -11.570312 7.53125 -11.375 C 7.851562 -11.175781 8.78125 -10.773438 10.3125 -10.171875 C 11.457031 -9.703125 12.304688 -9.242188 12.859375 -8.796875 C 13.421875 -8.347656 13.832031 -7.816406 14.09375 -7.203125 C 14.363281 -6.597656 14.5 -5.863281 14.5 -5 Z M 14.5 -5 "/></g></g></g></svg>